<svg id="Layer_1" data-name="Layer 1" xmlns="http://www.w3.org/2000/svg" viewBox="0 0 135 116"><defs><style>.cls-1,.cls-2{fill:#144923;}.cls-2{fill-rule:evenodd;}.cls-3{fill:#f37021;}</style></defs><path class="cls-1" d="M46.1.27C39.87.27,35,1,31.46,2.5,24.06,5.65,19.6,10.74,19.6,19.12V71.85L32.7,58.76v-37c0-4.44,2.12-7.21,6.15-8.78a19.88,19.88,0,0,1,7-1H72.6L62.82.27Z"/><path class="cls-2" d="M50.15,66.67l20,17.38,48.5-55.77L87.31,31.36l8,6.94L69.05,68.48l-20-17.39L.43,101,19.6,87.74v9.14a16.73,16.73,0,0,0,3.92,11.23c5.45,6.34,14.74,7.62,22.58,7.62H86.89L69.2,100.37v3.69H45.63c-3.8,0-8-.65-10.78-3.55a9,9,0,0,1-2.15-6.23V78.71Z"/><polygon class="cls-3" points="81.57 106.28 91.61 114.27 91.61 67.83 81.57 79.38 81.57 106.28"/><path class="cls-3" d="M122.71,2.5C119.16,1,114.3.27,108.07.27H70.94L86.31,18v-6h22c6.56,0,13.17,2,13.17,9.78L121.39,114c7.93-2.74,13.18-8.46,13.18-17.13V19.12C134.57,10.85,130.16,5.7,122.71,2.5Z"/><polygon class="cls-3" points="94.87 115.73 104.75 115.73 104.75 52.72 94.87 64.08 94.87 115.73"/><path class="cls-3" d="M108.25,115.73a51.51,51.51,0,0,0,9.88-.85V37.33L108.25,48.7Z"/></svg>