<svg id="Layer_1" data-name="Layer 1" xmlns="http://www.w3.org/2000/svg" viewBox="0 0 430.5 170"><defs><style>.cls-1{fill:#f37021;}.cls-2,.cls-3{fill:#144923;}.cls-3{fill-rule:evenodd;}</style></defs><path class="cls-1" d="M34.32,154.08,28,143H26.34v11.1H19.23V124.7H31.37a13.17,13.17,0,0,1,5.9,1.2,8.32,8.32,0,0,1,3.61,3.31,9.41,9.41,0,0,1,1.21,4.8,8.52,8.52,0,0,1-1.77,5.44,9,9,0,0,1-5.13,3.08l7,11.55Zm-8-16h4.4a4.44,4.44,0,0,0,3.12-.93,3.61,3.61,0,0,0,1-2.77,3.65,3.65,0,0,0-1-2.74,4.25,4.25,0,0,0-3.1-1h-4.4Z"/><path class="cls-1" d="M68.31,143.77H52.23a5.36,5.36,0,0,0,1.33,3.76,4.7,4.7,0,0,0,5.69.36,3.66,3.66,0,0,0,1.37-2h7.53a9.84,9.84,0,0,1-2,4.39,10.68,10.68,0,0,1-3.9,3,13.38,13.38,0,0,1-11.33-.33,10.23,10.23,0,0,1-4.13-4.14,12.8,12.8,0,0,1-1.5-6.31,13,13,0,0,1,1.47-6.34A10.2,10.2,0,0,1,50.9,132,13.68,13.68,0,0,1,63,132a10.05,10.05,0,0,1,4.05,4,11.88,11.88,0,0,1,1.43,5.88A9.68,9.68,0,0,1,68.31,143.77Zm-8.2-6.42A4.55,4.55,0,0,0,57,136.21a4.68,4.68,0,0,0-3.24,1.16,4.89,4.89,0,0,0-1.46,3.41h9.06A4.28,4.28,0,0,0,60.11,137.35Z"/><path class="cls-1" d="M88.53,132.8a9.62,9.62,0,0,1,3.31,5.82H85.19a3.7,3.7,0,0,0-1.31-2.22,4,4,0,0,0-2.56-.81,2.79,2.79,0,0,0-1.83.52,1.8,1.8,0,0,0-.62,1.47A1.73,1.73,0,0,0,80,139.2a18.15,18.15,0,0,0,3.6,1.08A36.67,36.67,0,0,1,88,141.55a7.17,7.17,0,0,1,3,2.1,5.8,5.8,0,0,1,1.25,3.9,6,6,0,0,1-1.08,3.54A7.13,7.13,0,0,1,88,153.5a12.2,12.2,0,0,1-4.82.87,12.37,12.37,0,0,1-7.52-2.08,8.7,8.7,0,0,1-3.45-5.94H79a3.1,3.1,0,0,0,1.26,2.29,4.85,4.85,0,0,0,2.85.79,2.64,2.64,0,0,0,1.83-.57,1.89,1.89,0,0,0,.62-1.47,1.79,1.79,0,0,0-1.14-1.73,21.68,21.68,0,0,0-3.72-1.1,30.53,30.53,0,0,1-4.24-1.16,7.07,7.07,0,0,1-2.87-2,5.6,5.6,0,0,1-1.2-3.8,6.2,6.2,0,0,1,2.37-5.05,10.31,10.31,0,0,1,6.69-1.93A10.63,10.63,0,0,1,88.53,132.8Z"/><path class="cls-1" d="M118.77,143.77H102.68a5.41,5.41,0,0,0,1.33,3.76,4.72,4.72,0,0,0,5.7.36,3.72,3.72,0,0,0,1.37-2h7.52a9.84,9.84,0,0,1-2,4.39,10.59,10.59,0,0,1-3.9,3,13.38,13.38,0,0,1-11.33-.33,10.23,10.23,0,0,1-4.13-4.14,14.17,14.17,0,0,1,0-12.65,10.12,10.12,0,0,1,4.13-4.12,13.68,13.68,0,0,1,12.14,0,10.05,10.05,0,0,1,4.05,4,11.77,11.77,0,0,1,1.43,5.88A10.43,10.43,0,0,1,118.77,143.77Zm-8.21-6.42a4.53,4.53,0,0,0-3.14-1.14,4.68,4.68,0,0,0-3.24,1.16,4.89,4.89,0,0,0-1.46,3.41h9.06A4.28,4.28,0,0,0,110.56,137.35Z"/><path class="cls-1" d="M136.89,131.8a7.29,7.29,0,0,1,2.82,3.29v-4.2h7.07v23.19h-7.07v-4.2a7.29,7.29,0,0,1-2.82,3.29,8.45,8.45,0,0,1-4.58,1.2,9.43,9.43,0,0,1-5.13-1.43,9.83,9.83,0,0,1-3.57-4.14,15.92,15.92,0,0,1,0-12.65,9.83,9.83,0,0,1,3.57-4.12,9.43,9.43,0,0,1,5.13-1.43A8.45,8.45,0,0,1,136.89,131.8Zm-6,6.53a6.91,6.91,0,0,0,0,8.31,5.21,5.21,0,0,0,7.36,0,6.66,6.66,0,0,0,0-8.25,4.85,4.85,0,0,0-3.68-1.52A4.79,4.79,0,0,0,130.92,138.33Z"/><path class="cls-1" d="M163.05,131.89a8.75,8.75,0,0,1,4.55-1.25v7.61h-2a7,7,0,0,0-4.38,1.2c-1,.81-1.56,2.16-1.56,4.07v10.56h-7.11V130.89h7.11v4.36A10,10,0,0,1,163.05,131.89Z"/><path class="cls-1" d="M189.42,133.07a11,11,0,0,1,3.82,6.8h-7.52a4,4,0,0,0-1.37-2.33,4.11,4.11,0,0,0-2.62-.83,3.82,3.82,0,0,0-3.08,1.47,8.32,8.32,0,0,0,0,8.61,3.82,3.82,0,0,0,3.08,1.47,4.11,4.11,0,0,0,2.62-.83,4,4,0,0,0,1.37-2.33h7.52a11,11,0,0,1-3.82,6.8,11.53,11.53,0,0,1-7.53,2.47,12.51,12.51,0,0,1-6-1.43,10.31,10.31,0,0,1-4.14-4.14,12.8,12.8,0,0,1-1.49-6.31,13,13,0,0,1,1.47-6.34,10.08,10.08,0,0,1,4.14-4.12,12.61,12.61,0,0,1,6.06-1.43A11.53,11.53,0,0,1,189.42,133.07Z"/><path class="cls-1" d="M218.82,133.3a10.68,10.68,0,0,1,2.35,7.31v13.47h-7.11V141.45a5.09,5.09,0,0,0-1.23-3.64,4.25,4.25,0,0,0-3.26-1.31,4.47,4.47,0,0,0-3.43,1.37,5.59,5.59,0,0,0-1.26,3.91v12.3h-7.11V123.33h7.11v11.8a7.54,7.54,0,0,1,3-3.28,8.64,8.64,0,0,1,4.63-1.21A8,8,0,0,1,218.82,133.3Z"/><path class="cls-1" d="M254,148.72H243l-1.83,5.36h-7.48l10.76-29.17h8.19l10.76,29.17h-7.56Zm-1.83-5.4-3.66-10.81-3.69,10.81Z"/><path class="cls-1" d="M288.06,133.3a10.68,10.68,0,0,1,2.35,7.31v13.47H283.3V141.45a5.09,5.09,0,0,0-1.23-3.64,4.25,4.25,0,0,0-3.26-1.31,4.47,4.47,0,0,0-3.43,1.37,5.59,5.59,0,0,0-1.27,3.91v12.3H267V130.89h7.1v4.24a7.62,7.62,0,0,1,3-3.28,8.64,8.64,0,0,1,4.63-1.21A8,8,0,0,1,288.06,133.3Z"/><path class="cls-1" d="M309.32,131.8a7.29,7.29,0,0,1,2.82,3.29v-4.2h7.07v23.19h-7.07v-4.2a7.29,7.29,0,0,1-2.82,3.29,8.45,8.45,0,0,1-4.58,1.2,9.43,9.43,0,0,1-5.13-1.43A9.83,9.83,0,0,1,296,148.8a15.92,15.92,0,0,1,0-12.65,9.83,9.83,0,0,1,3.57-4.12,9.43,9.43,0,0,1,5.13-1.43A8.45,8.45,0,0,1,309.32,131.8Zm-6,6.53a6.91,6.91,0,0,0,0,8.31,5.21,5.21,0,0,0,7.36,0,6.66,6.66,0,0,0,0-8.25,4.85,4.85,0,0,0-3.68-1.52A4.79,4.79,0,0,0,303.35,138.33Z"/><path class="cls-1" d="M332.05,123.33v30.75h-7.11V123.33Z"/><path class="cls-1" d="M343.14,130.89l5.57,14.21,5.2-14.21h7.85L347.3,165.13h-7.81l5.44-11.92-9.72-22.32Z"/><path class="cls-1" d="M380.44,132.8a9.62,9.62,0,0,1,3.31,5.82H377.1a3.7,3.7,0,0,0-1.31-2.22,4,4,0,0,0-2.56-.81,2.79,2.79,0,0,0-1.83.52,1.8,1.8,0,0,0-.62,1.47,1.73,1.73,0,0,0,1.14,1.62,18.36,18.36,0,0,0,3.6,1.08,36.12,36.12,0,0,1,4.36,1.27,7.17,7.17,0,0,1,2.95,2.1,5.8,5.8,0,0,1,1.25,3.9,6,6,0,0,1-1.08,3.54,7.13,7.13,0,0,1-3.12,2.41,12.2,12.2,0,0,1-4.82.87,12.37,12.37,0,0,1-7.52-2.08,8.74,8.74,0,0,1-3.45-5.94H371a3.1,3.1,0,0,0,1.26,2.29,4.85,4.85,0,0,0,2.85.79,2.64,2.64,0,0,0,1.83-.57,1.86,1.86,0,0,0,.62-1.47,1.79,1.79,0,0,0-1.14-1.73,21.68,21.68,0,0,0-3.72-1.1,30.53,30.53,0,0,1-4.24-1.16,7.07,7.07,0,0,1-2.87-2,5.6,5.6,0,0,1-1.2-3.8,6.2,6.2,0,0,1,2.37-5.05,10.31,10.31,0,0,1,6.69-1.93A10.63,10.63,0,0,1,380.44,132.8Z"/><path class="cls-1" d="M410.68,143.77H394.59a5.41,5.41,0,0,0,1.33,3.76,4.72,4.72,0,0,0,5.7.36,3.72,3.72,0,0,0,1.37-2h7.52a9.83,9.83,0,0,1-2,4.39,10.71,10.71,0,0,1-3.91,3,13.38,13.38,0,0,1-11.33-.33,10.35,10.35,0,0,1-4.13-4.14,12.8,12.8,0,0,1-1.5-6.31,13,13,0,0,1,1.48-6.34,10.12,10.12,0,0,1,4.13-4.12,13.68,13.68,0,0,1,12.14,0,10,10,0,0,1,4.05,4,11.77,11.77,0,0,1,1.43,5.88A9.62,9.62,0,0,1,410.68,143.77Zm-8.21-6.42a4.53,4.53,0,0,0-3.14-1.14,4.68,4.68,0,0,0-3.24,1.16,4.89,4.89,0,0,0-1.45,3.41h9.05A4.28,4.28,0,0,0,402.47,137.35Z"/><path class="cls-1" d="M426,131.89a8.78,8.78,0,0,1,4.55-1.25v7.61h-2a7,7,0,0,0-4.38,1.2c-1,.81-1.56,2.16-1.56,4.07v10.56h-7.11V130.89h7.11v4.36A10.11,10.11,0,0,1,426,131.89Z"/><polygon class="cls-2" points="214.76 97.16 214.76 115.11 142.43 115.11 142.43 47.69 175.86 47.69 175.81 47.64 206.18 47.64 206.18 64.64 160.52 64.64 160.52 97.16 214.76 97.16"/><rect class="cls-2" x="142.43" y="0.49" width="72.34" height="17.68"/><rect class="cls-2" x="142.43" y="0.49" width="17.52" height="114.62"/><path class="cls-2" d="M372.38,82.53c1.21,9.19,9.2,15.83,22.18,15.83,6.78,0,15.69-2.56,19.91-6.94L426.24,103c-7.85,8.15-20.67,12.07-32,12.07-25.65,0-40.89-15.84-40.89-39.67,0-22.64,15.39-38.93,39.53-38.93,24.89,0,40.43,15.39,37.56,46Zm40.43-15.24c-1.21-9.65-8.75-14.49-19.31-14.49-9.95,0-18.1,4.84-20.82,14.49Z"/><rect class="cls-2" x="260.57" y="40.43" width="18.4" height="74.67"/><path class="cls-2" d="M246.37.49V115.11H228.12V.49Z"/><path class="cls-2" d="M325.47-.49V40H346V55.79H325.32V87.92c0,7.09,3.92,10.57,9.65,10.57a21,21,0,0,0,8.91-2.27L349,111.91a41.12,41.12,0,0,1-15.24,3.17c-16.13.6-26.7-8.6-26.7-27.16V55.79H293.19V40h13.87V-.49Z"/><path class="cls-2" d="M45.71-.36c-6.23,0-11.1.73-14.64,2.24C23.67,5,19.21,10.11,19.21,18.49V71.23l13.1-13.1v-37c0-4.44,2.11-7.2,6.15-8.78a20,20,0,0,1,7-1H72.21L62.43-.36Z"/><path class="cls-3" d="M49.76,66l20,17.38,48.5-55.76L86.92,30.73l8,7L68.66,67.85l-20-17.38L0,100.34,19.21,87.11v9.15a16.68,16.68,0,0,0,3.92,11.22c5.44,6.34,14.73,7.63,22.58,7.63H86.5L68.81,99.74v3.69H45.24c-3.8,0-8-.65-10.78-3.54a9,9,0,0,1-2.15-6.24V78.08Z"/><path class="cls-1" d="M280.64,19.77c0,14.33-21.72,14.33-21.72,0S280.64,5.43,280.64,19.77Z"/><polygon class="cls-1" points="81.18 105.65 91.22 113.64 91.22 67.2 81.18 78.75 81.18 105.65"/><path class="cls-1" d="M122.32,1.88c-3.55-1.5-8.41-2.24-14.64-2.24H70.55L85.92,17.33v-6h22c6.56,0,13.17,2,13.17,9.79L121,113.38c7.93-2.73,13.18-8.45,13.18-17.12V18.49C134.18,10.23,129.77,5.08,122.32,1.88Z"/><polygon class="cls-1" points="94.48 115.1 104.36 115.11 104.36 52.09 94.48 63.46 94.48 115.1"/><path class="cls-1" d="M107.86,115.11a50.65,50.65,0,0,0,9.88-.86V36.71l-9.88,11.37Z"/></svg>